#N canvas 396 148 1062 854 10;
#X text 770 -750 Bass;
#X obj 560 -650 bng 15 250 50 0 empty empty empty 17 7 0 10 #fcfcfc
#000000 #000000;
#X obj 560 -690 r whole_note;
#X text 84 -762 BPM;
#X obj 44 -725 loadbang;
#X obj 113 -725 loadbang;
#X obj 44 -598 /;
#X floatatom 44 -562 5 0 0 0 - - -, f 5;
#X obj 113 -628 t b f;
#X msg 44 -695 60000;
#X msg 113 -694 60;
#X floatatom 113 -661 5 0 0 0 - - -, f 5;
#X obj 220 -592 metro;
#X floatatom 270 -632 5 0 0 0 - - -, f 5;
#X obj 220 -562 bng 15 250 50 0 empty empty empty 17 7 0 10 #fcfcfc
#000000 #000000;
#X obj 270 -662 * 4;
#X obj 278 -594 s whole_time;
#X obj 220 -530 s whole_note;
#X obj 580 -50 freeverb~, f 11;
#X obj 910 -170 loadbang;
#X msg 910 -90 roomsize \$1;
#X obj 770 -170 loadbang;
#X obj 840 -170 loadbang;
#X msg 770 -90 wet \$1;
#X msg 840 -90 dry \$1;
#X msg 840 -130 0.5;
#X msg 770 -130 0.3;
#X obj 560 -620 int 1;
#X obj 650 -590 + 1;
#X floatatom 560 -500 5 0 0 0 - - -, f 5;
#X obj 560 -560 % 4;
#X obj 560 -460 sel 0 1 2 3, f 26;
#X msg 560 -380 47 50;
#X msg 630 -380 45 50;
#X msg 700 -380 43 50;
#X msg 770 -380 45 49;
#X obj 560 -320 unpack f f f f, f 55;
#X obj 560 -260 synth;
#X obj 660 -260 synth;
#X obj 770 -260 synth;
#X obj 880 -260 synth;
#X obj 570 -200 +~;
#X obj 560 -420 bng 15 250 50 0 empty empty empty 17 7 0 10 #fcfcfc
#000000 #000000;
#X obj 600 -420 bng 15 250 50 0 empty empty empty 17 7 0 10 #fcfcfc
#000000 #000000;
#X obj 640 -420 bng 15 250 50 0 empty empty empty 17 7 0 10 #fcfcfc
#000000 #000000;
#X obj 680 -420 bng 15 250 50 0 empty empty empty 17 7 0 10 #fcfcfc
#000000 #000000;
#X obj 600 20 dac~;
#X obj 210 -650 r bass_on;
#X obj 44 -529 send 4th_bass;
#X obj 270 -690 r 4th_bass;
#X obj 570 -130 *~;
#X obj 600 -160 r bass_vol;
#X msg 910 -130 0.5;
#X connect 1 0 27 0;
#X connect 2 0 1 0;
#X connect 4 0 9 0;
#X connect 5 0 10 0;
#X connect 6 0 7 0;
#X connect 7 0 48 0;
#X connect 8 0 6 0;
#X connect 8 1 6 1;
#X connect 9 0 6 0;
#X connect 10 0 11 0;
#X connect 11 0 8 0;
#X connect 12 0 14 0;
#X connect 13 0 12 1;
#X connect 13 0 16 0;
#X connect 14 0 17 0;
#X connect 15 0 13 0;
#X connect 18 0 46 0;
#X connect 18 1 46 1;
#X connect 19 0 52 0;
#X connect 20 0 18 0;
#X connect 21 0 26 0;
#X connect 22 0 25 0;
#X connect 23 0 18 0;
#X connect 24 0 18 0;
#X connect 25 0 24 0;
#X connect 26 0 23 0;
#X connect 27 0 28 0;
#X connect 27 0 30 0;
#X connect 28 0 27 1;
#X connect 29 0 31 0;
#X connect 30 0 29 0;
#X connect 31 0 42 0;
#X connect 31 1 43 0;
#X connect 31 2 44 0;
#X connect 31 3 45 0;
#X connect 32 0 36 0;
#X connect 33 0 36 0;
#X connect 34 0 36 0;
#X connect 35 0 36 0;
#X connect 36 0 37 0;
#X connect 36 1 38 0;
#X connect 36 2 39 0;
#X connect 36 3 40 0;
#X connect 37 0 41 0;
#X connect 38 0 41 0;
#X connect 39 0 41 0;
#X connect 40 0 41 0;
#X connect 41 0 50 0;
#X connect 42 0 32 0;
#X connect 43 0 33 0;
#X connect 44 0 34 0;
#X connect 45 0 35 0;
#X connect 47 0 12 0;
#X connect 49 0 15 0;
#X connect 50 0 18 0;
#X connect 50 0 18 1;
#X connect 51 0 50 1;
#X connect 52 0 20 0;
