#N canvas 264 89 1446 847 10;
#X obj 300 820 bng 15 250 50 0 empty empty empty 17 7 0 10 #fcfcfc
#000000 #000000;
#X obj 410 820 bng 15 250 50 0 empty empty empty 17 7 0 10 #fcfcfc
#000000 #000000;
#X obj 510 820 bng 15 250 50 0 empty empty empty 17 7 0 10 #fcfcfc
#000000 #000000;
#X obj 610 820 bng 15 250 50 0 empty empty empty 17 7 0 10 #fcfcfc
#000000 #000000;
#X obj 300 340 bng 15 250 50 0 empty empty empty 17 7 0 10 #fcfcfc
#000000 #000000;
#X obj 300 380 int 1;
#X obj 390 410 + 1;
#X obj 300 720 r zero;
#X obj 410 720 r one;
#X obj 510 720 r two;
#X obj 610 720 r three;
#X floatatom 300 550 5 0 0 0 - - -, f 5;
#X obj 300 490 % 4;
#X obj 300 630 bng 15 250 50 0 empty empty empty 17 7 0 10 #fcfcfc
#000000 #000000;
#X obj 380 630 bng 15 250 50 0 empty empty empty 17 7 0 10 #fcfcfc
#000000 #000000;
#X obj 450 630 bng 15 250 50 0 empty empty empty 17 7 0 10 #fcfcfc
#000000 #000000;
#X obj 300 660 s zero;
#X obj 380 660 s one;
#X obj 870 420 readsf~;
#X obj 870 600 dac~;
#X obj 450 660 s two;
#X obj 300 440 % 8;
#X obj 590 630 bng 15 250 50 0 empty empty empty 17 7 0 10 #fcfcfc
#000000 #000000;
#X obj 660 630 bng 15 250 50 0 empty empty empty 17 7 0 10 #fcfcfc
#000000 #000000;
#X obj 590 660 s three;
#X obj 660 660 s seven;
#X obj 720 820 bng 15 250 50 0 empty empty empty 17 7 0 10 #fcfcfc
#000000 #000000;
#X obj 720 720 r seven;
#X obj 720 870 s hit;
#X obj 460 880 s shake;
#X obj 1200 370 readsf~;
#X obj 870 340 r shake;
#X obj 1200 290 r hit;
#X msg 870 380 open ./salt_shanker.wav \, 1;
#X msg 1200 330 open ./hit.wav \, 1;
#X text 661 30 BPM;
#X obj 910 140 * 1;
#X obj 860 210 metro;
#X floatatom 910 170 5 0 0 0 - - -, f 5;
#X obj 860 240 bng 15 250 50 0 empty empty empty 17 7 0 10 #fcfcfc
#000000 #000000;
#X obj 621 67 loadbang;
#X obj 690 67 loadbang;
#X obj 621 194 /;
#X floatatom 621 230 5 0 0 0 - - -, f 5;
#X obj 690 164 t b f;
#X msg 621 97 60000;
#X msg 690 98 60;
#X floatatom 690 131 5 0 0 0 - - -, f 5;
#X obj 300 590 sel 0 1 2, f 26;
#X obj 590 590 sel 3 7;
#X obj 1290 410 vline~;
#X obj 1200 430 *~, f 7;
#X obj 1340 350 bng 15 250 50 0 empty empty empty 17 7 0 10 #fcfcfc
#000000 #000000;
#X obj 1200 560 freeverb~, f 11;
#X obj 1330 440 loadbang;
#X obj 1400 440 loadbang;
#X obj 1470 440 loadbang;
#X msg 1400 480 0.5;
#X msg 1330 520 wet \$1;
#X msg 1400 520 dry \$1;
#X msg 1470 520 roomsize \$1;
#X obj 1180 710 dac~;
#X msg 1330 480 0.3;
#X obj 621 263 send beat_time;
#X obj 910 110 r beat_time;
#X obj 860 270 s beat_drop;
#X obj 300 300 r beat_drop;
#X obj 870 490 *~ 1;
#X obj 870 540 *~;
#X obj 1160 620 *~;
#X obj 1220 620 *~;
#X obj 920 510 r beat_vol;
#X obj 1110 560 r beat_vol;
#X obj 830 110 r beat_on;
#X msg 1340 380 2 0 0 \, 1.5 500 2 \, 0 150 1000;
#X msg 1470 480 0.8;
#X connect 0 0 29 0;
#X connect 1 0 29 0;
#X connect 2 0 29 0;
#X connect 3 0 29 0;
#X connect 4 0 5 0;
#X connect 5 0 6 0;
#X connect 5 0 21 0;
#X connect 6 0 5 1;
#X connect 7 0 0 0;
#X connect 8 0 1 0;
#X connect 9 0 2 0;
#X connect 10 0 3 0;
#X connect 11 0 48 0;
#X connect 12 0 11 0;
#X connect 13 0 16 0;
#X connect 14 0 17 0;
#X connect 15 0 20 0;
#X connect 18 0 67 0;
#X connect 21 0 12 0;
#X connect 21 0 49 0;
#X connect 22 0 24 0;
#X connect 23 0 25 0;
#X connect 26 0 28 0;
#X connect 27 0 26 0;
#X connect 30 0 51 0;
#X connect 31 0 33 0;
#X connect 32 0 34 0;
#X connect 32 0 52 0;
#X connect 33 0 18 0;
#X connect 34 0 30 0;
#X connect 36 0 38 0;
#X connect 37 0 39 0;
#X connect 38 0 37 1;
#X connect 39 0 65 0;
#X connect 40 0 45 0;
#X connect 41 0 46 0;
#X connect 42 0 43 0;
#X connect 43 0 63 0;
#X connect 44 0 42 0;
#X connect 44 1 42 1;
#X connect 45 0 42 0;
#X connect 46 0 47 0;
#X connect 47 0 44 0;
#X connect 48 0 13 0;
#X connect 48 1 14 0;
#X connect 48 2 15 0;
#X connect 49 0 22 0;
#X connect 49 1 23 0;
#X connect 50 0 51 1;
#X connect 51 0 53 0;
#X connect 51 0 53 1;
#X connect 52 0 74 0;
#X connect 53 0 69 0;
#X connect 53 1 70 0;
#X connect 54 0 62 0;
#X connect 55 0 57 0;
#X connect 56 0 75 0;
#X connect 57 0 59 0;
#X connect 58 0 53 0;
#X connect 59 0 53 0;
#X connect 60 0 53 0;
#X connect 62 0 58 0;
#X connect 64 0 36 0;
#X connect 66 0 4 0;
#X connect 67 0 68 0;
#X connect 68 0 19 0;
#X connect 68 0 19 1;
#X connect 69 0 61 0;
#X connect 70 0 61 1;
#X connect 71 0 68 1;
#X connect 72 0 70 1;
#X connect 72 0 69 1;
#X connect 73 0 37 0;
#X connect 74 0 50 0;
#X connect 75 0 60 0;
