#N canvas 72 88 1190 826 10;
#X text 131 -664 BPM;
#X obj 380 -584 r 4th_time;
#X obj 380 -554 * 1;
#X obj 330 -484 metro;
#X floatatom 380 -524 5 0 0 0 - - -, f 5;
#X obj 330 -454 bng 15 250 50 0 empty empty empty 17 7 0 10 #fcfcfc
#000000 #000000;
#X obj 91 -627 loadbang;
#X obj 160 -627 loadbang;
#X obj 91 -500 /;
#X floatatom 91 -464 5 0 0 0 - - -, f 5;
#X obj 160 -530 t b f;
#X msg 91 -597 60000;
#X msg 160 -596 60;
#X floatatom 160 -563 5 0 0 0 - - -, f 5;
#X obj 91 -431 send 4th_time;
#X obj 180 -370 r 4th_time;
#X obj 130 -270 metro;
#X floatatom 180 -310 5 0 0 0 - - -, f 5;
#X obj 130 -240 bng 15 250 50 0 empty empty empty 17 7 0 10 #fcfcfc
#000000 #000000;
#X obj 180 -340 * 16;
#X obj 530 -590 loadbang;
#X msg 730 -430 step;
#X msg 650 -430 line 0;
#X obj 810 -480 bng 15 250 50 0 empty empty empty 17 7 0 10 #fcfcfc
#000000 #000000;
#X obj 690 -490 bng 15 250 50 0 empty empty empty 17 7 0 10 #fcfcfc
#000000 #000000;
#X msg 560 -350 0;
#X text 660 -620 chords;
#X msg 528 -552 read ./ChordsMiDi.txt;
#X obj 530 -510 text define -k chord;
#A set 59 \; 62 \; 69 \; 74 \; 57 \; 62 \; 69 \; 74 \; 55 \; 62 \;
69 \; 74 \; 57 \; 64 \; 69 \; 76 \;;
#X obj 640 -380 text sequence chord;
#X obj 188 -272 s 2breve_time;
#X obj 130 -208 s 2breve_note;
#X obj 790 -320 vline~;
#X obj 690 -530 r 2breve_note;
#X floatatom 640 -330 5 0 0 0 - - -, f 5;
#X obj 330 -424 s chord_key;
#X obj 810 -530 r chord_key;
#X obj 300 -584 r chords_on;
#X obj 100 -370 r chords_on;
#X obj 560 -380 r chords_on;
#X obj 640 -180 *~;
#X obj 640 -70 freeverb~, f 11;
#X obj 970 -200 loadbang;
#X msg 970 -120 roomsize \$1;
#X obj 660 30 dac~;
#X obj 830 -200 loadbang;
#X obj 900 -200 loadbang;
#X msg 830 -120 wet \$1;
#X msg 900 -120 dry \$1;
#X msg 900 -160 0.5;
#X msg 830 -160 0.3;
#X obj 590 -260 pluck~;
#X obj 670 -260 pluck~;
#X obj 640 -140 *~;
#X obj 690 -170 r chord_vol;
#X msg 970 -160 0.5;
#X obj 610 -210 lop~ 100;
#X msg 790 -370 5 450 \, 0 380 660;
#X connect 1 0 2 0;
#X connect 2 0 4 0;
#X connect 3 0 5 0;
#X connect 4 0 3 1;
#X connect 5 0 35 0;
#X connect 6 0 11 0;
#X connect 7 0 12 0;
#X connect 8 0 9 0;
#X connect 9 0 14 0;
#X connect 10 0 8 0;
#X connect 10 1 8 1;
#X connect 11 0 8 0;
#X connect 12 0 13 0;
#X connect 13 0 10 0;
#X connect 15 0 19 0;
#X connect 16 0 18 0;
#X connect 17 0 16 1;
#X connect 17 0 30 0;
#X connect 18 0 31 0;
#X connect 19 0 17 0;
#X connect 20 0 27 0;
#X connect 21 0 29 0;
#X connect 22 0 29 0;
#X connect 23 0 21 0;
#X connect 23 0 51 0;
#X connect 23 0 57 0;
#X connect 23 0 52 0;
#X connect 24 0 22 0;
#X connect 25 0 34 0;
#X connect 27 0 22 0;
#X connect 27 0 28 0;
#X connect 29 0 34 0;
#X connect 32 0 40 1;
#X connect 33 0 24 0;
#X connect 34 0 51 1;
#X connect 34 0 52 1;
#X connect 36 0 23 0;
#X connect 37 0 3 0;
#X connect 38 0 16 0;
#X connect 39 0 25 0;
#X connect 40 0 53 0;
#X connect 41 0 44 0;
#X connect 41 1 44 1;
#X connect 42 0 55 0;
#X connect 43 0 41 0;
#X connect 45 0 50 0;
#X connect 46 0 49 0;
#X connect 47 0 41 0;
#X connect 48 0 41 0;
#X connect 49 0 48 0;
#X connect 50 0 47 0;
#X connect 51 0 56 0;
#X connect 52 0 56 0;
#X connect 53 0 41 0;
#X connect 53 0 41 1;
#X connect 54 0 53 1;
#X connect 55 0 43 0;
#X connect 56 0 40 0;
#X connect 57 0 32 0;
