#N canvas 161 93 1637 905 10;
#X text 70 -653 BPM;
#X obj 30 -616 loadbang;
#X obj 99 -616 loadbang;
#X obj 30 -489 /;
#X floatatom 30 -453 5 0 0 0 - - -, f 5;
#X obj 99 -519 t b f;
#X msg 30 -586 60000;
#X msg 99 -585 60;
#X floatatom 99 -552 5 0 0 0 - - -, f 5;
#X obj 30 -420 s 4th_time;
#X obj 322 -598 r 4th_time;
#X obj 272 -498 metro;
#X floatatom 322 -538 5 0 0 0 - - -, f 5;
#X obj 272 -468 bng 15 250 50 0 empty empty empty 17 7 0 10 #fcfcfc
#000000 #000000;
#X obj 322 -568 * 4;
#X obj 614 -640 loadbang;
#X msg 814 -480 step;
#X msg 734 -480 line 0;
#X floatatom 720 -390 5 0 0 0 - - -, f 5;
#X obj 894 -530 bng 15 250 50 0 empty empty empty 17 7 0 10 #fcfcfc
#000000 #000000;
#X obj 774 -540 bng 15 250 50 0 empty empty empty 17 7 0 10 #fcfcfc
#000000 #000000;
#X msg 884 -430 0;
#X obj 884 -460 r harmony_on;
#X obj 102 -378 r 4th_time;
#X obj 52 -278 metro;
#X floatatom 102 -318 5 0 0 0 - - -, f 5;
#X obj 52 -248 bng 15 250 50 0 empty empty empty 17 7 0 10 #fcfcfc
#000000 #000000;
#X obj 102 -348 * 16;
#X obj 52 -216 s loop;
#X obj 774 -580 r loop;
#X obj 894 -580 r harmony_key;
#X obj 242 -598 r harmony_on;
#X obj 22 -378 r harmony_on;
#X obj 270 -440 s harmony_key;
#X msg 610 -600 read ./HarmonyMiDi.txt;
#X text 744 -670 Harmony;
#X obj 614 -560 text define -k Harmony;
#A set 93 \; 90 \; 86 \; 88 \; 93 \; 90 \; 86 \; 88 \; 93 \; 90 \;
86 \; 88 \; 93 \; 90 \; 86 \; 88 \;;
#X obj 724 -430 text sequence Harmony;
#X obj 900 -290 vline~;
#X obj 720 -240 *~;
#X obj 720 -280 osc~;
#X obj 720 -200 hip~ 800;
#X obj 720 -90 freeverb~, f 11;
#X obj 1040 -150 loadbang;
#X msg 1040 -70 roomsize \$1;
#X obj 750 40 dac~;
#X obj 900 -150 loadbang;
#X obj 970 -150 loadbang;
#X msg 900 -70 wet \$1;
#X msg 970 -70 dry \$1;
#X msg 970 -110 0.5;
#X msg 900 -110 0.3;
#X obj 720 -320 mtof;
#X obj 720 -360 - 12;
#X msg 900 -330 1 450 \, 0 900 1090;
#X obj 720 -150 *~;
#X obj 770 -180 r harmony_vol;
#X msg 1040 -110 0.8;
#X obj 810 0 delwrite~ left 1000;
#X obj 820 -30 delwrite~ right 1000;
#X obj 560 0 delread~ left 1500;
#X obj 860 60 delread~ right 500;
#X connect 1 0 6 0;
#X connect 2 0 7 0;
#X connect 3 0 4 0;
#X connect 4 0 9 0;
#X connect 5 0 3 0;
#X connect 5 1 3 1;
#X connect 6 0 3 0;
#X connect 7 0 8 0;
#X connect 8 0 5 0;
#X connect 10 0 14 0;
#X connect 11 0 13 0;
#X connect 12 0 11 1;
#X connect 13 0 33 0;
#X connect 14 0 12 0;
#X connect 15 0 34 0;
#X connect 16 0 37 0;
#X connect 17 0 37 0;
#X connect 18 0 53 0;
#X connect 19 0 16 0;
#X connect 19 0 54 0;
#X connect 20 0 17 0;
#X connect 21 0 18 0;
#X connect 22 0 21 0;
#X connect 23 0 27 0;
#X connect 24 0 26 0;
#X connect 25 0 24 1;
#X connect 26 0 28 0;
#X connect 27 0 25 0;
#X connect 29 0 20 0;
#X connect 30 0 19 0;
#X connect 31 0 11 0;
#X connect 32 0 24 0;
#X connect 34 0 17 0;
#X connect 34 0 36 0;
#X connect 37 0 18 0;
#X connect 38 0 39 1;
#X connect 39 0 41 0;
#X connect 40 0 39 0;
#X connect 41 0 55 0;
#X connect 42 0 45 0;
#X connect 42 0 58 0;
#X connect 42 1 45 1;
#X connect 42 1 59 0;
#X connect 43 0 57 0;
#X connect 44 0 42 0;
#X connect 46 0 51 0;
#X connect 47 0 50 0;
#X connect 48 0 42 0;
#X connect 49 0 42 0;
#X connect 50 0 49 0;
#X connect 51 0 48 0;
#X connect 52 0 40 0;
#X connect 53 0 52 0;
#X connect 54 0 38 0;
#X connect 55 0 42 0;
#X connect 55 0 42 1;
#X connect 56 0 55 1;
#X connect 57 0 44 0;
#X connect 60 0 45 0;
#X connect 61 0 45 1;
