#N canvas 32 64 1226 870 10;
#X obj 750 440 mtof;
#X msg 640 150 read ./LeadMiDi.txt;
#X obj 640 110 loadbang;
#X obj 640 190 text define -k lead;
#A set 69 \; 62 \; 69 \; 62 \; 66 \; 62 \; 66 \; 62 \; 69 \; 62 \;
69 \; 62 \; 66 \; 62 \; 66 \; 62 \; 66 \; 62 \; 66 \; 62 \; 64 \; 62
\; 64 \; 62 \; 64 \; 62 \; 64 \; 62 \; 64 \; 62 \; 69 \; 62 \;;
#X obj 750 320 text sequence lead;
#X msg 840 270 step;
#X msg 760 270 line 0;
#X floatatom 750 360 5 0 0 0 - - -, f 5;
#X obj 920 220 bng 15 250 50 0 empty empty empty 17 7 0 10 #fcfcfc
#000000 #000000;
#X obj 800 210 bng 15 250 50 0 empty empty empty 17 7 0 10 #fcfcfc
#000000 #000000;
#X msg 910 320 0;
#X text 770 80 lead;
#X text 130 27 BPM;
#X obj 90 64 loadbang;
#X obj 159 64 loadbang;
#X obj 90 191 /;
#X floatatom 90 227 5 0 0 0 - - -, f 5;
#X obj 159 161 t b f;
#X msg 90 94 60000;
#X msg 159 95 60;
#X floatatom 159 128 5 0 0 0 - - -, f 5;
#X obj 350 170 metro;
#X floatatom 400 130 5 0 0 0 - - -, f 5;
#X obj 350 200 bng 15 250 50 0 empty empty empty 17 7 0 10 #fcfcfc
#000000 #000000;
#X obj 400 100 / 2;
#X obj 120 400 metro;
#X floatatom 170 360 5 0 0 0 - - -, f 5;
#X obj 120 430 bng 15 250 50 0 empty empty empty 17 7 0 10 #fcfcfc
#000000 #000000;
#X obj 910 290 r lead_on;
#X obj 350 230 s lead_note;
#X obj 920 170 r lead_note;
#X obj 120 462 s 2loop;
#X obj 800 170 r 2loop;
#X obj 320 70 r lead_on;
#X obj 90 300 r lead_on;
#X obj 170 330 * 16;
#X obj 90 260 s lead_time;
#X obj 170 300 r lead_time;
#X obj 400 70 r lead_time;
#X obj 750 690 freeverb~, f 11;
#X obj 1000 630 loadbang;
#X msg 1000 710 roomsize \$1;
#X obj 770 790 dac~;
#X obj 860 630 loadbang;
#X obj 930 630 loadbang;
#X msg 860 710 wet \$1;
#X msg 930 710 dry \$1;
#X obj 890 520 vline~;
#X msg 930 670 0.5;
#X msg 860 670 0.3;
#X obj 750 580 *~;
#X obj 750 490 osc~;
#X msg 1000 670 0.3;
#X obj 750 400 + 12;
#X obj 750 520 hip~ 700;
#X msg 890 480 1 10 \, 0 100 240;
#X obj 750 630 *~;
#X obj 800 600 r lead_vol;
#X connect 0 0 51 0;
#X connect 1 0 3 0;
#X connect 1 0 6 0;
#X connect 2 0 1 0;
#X connect 4 0 7 0;
#X connect 5 0 4 0;
#X connect 6 0 4 0;
#X connect 7 0 53 0;
#X connect 8 0 5 0;
#X connect 8 0 55 0;
#X connect 9 0 6 0;
#X connect 10 0 7 0;
#X connect 13 0 18 0;
#X connect 14 0 19 0;
#X connect 15 0 16 0;
#X connect 16 0 36 0;
#X connect 17 0 15 0;
#X connect 17 1 15 1;
#X connect 18 0 15 0;
#X connect 19 0 20 0;
#X connect 20 0 17 0;
#X connect 21 0 23 0;
#X connect 22 0 21 1;
#X connect 23 0 29 0;
#X connect 24 0 22 0;
#X connect 25 0 27 0;
#X connect 26 0 25 1;
#X connect 27 0 31 0;
#X connect 28 0 10 0;
#X connect 30 0 8 0;
#X connect 32 0 9 0;
#X connect 33 0 21 0;
#X connect 34 0 25 0;
#X connect 35 0 26 0;
#X connect 37 0 35 0;
#X connect 38 0 24 0;
#X connect 39 0 42 0;
#X connect 39 1 42 1;
#X connect 40 0 52 0;
#X connect 41 0 39 0;
#X connect 43 0 49 0;
#X connect 44 0 48 0;
#X connect 45 0 39 0;
#X connect 46 0 39 0;
#X connect 47 0 50 1;
#X connect 48 0 46 0;
#X connect 49 0 45 0;
#X connect 50 0 56 0;
#X connect 51 0 54 0;
#X connect 52 0 41 0;
#X connect 53 0 0 0;
#X connect 54 0 50 0;
#X connect 55 0 47 0;
#X connect 56 0 39 0;
#X connect 56 0 39 1;
#X connect 57 0 56 1;
