#N canvas 661 256 973 621 10;
#X obj 84 0 inlet;
#X obj 80 70 mtof;
#X obj 86 244 outlet~;
#X obj 86 173 *~;
#X obj 260 90 vline~;
#X obj 252 28 bng 19 250 50 0 empty empty empty 0 -10 0 12 #fcfcfc
#000000 #000000;
#X obj 80 40 + 12;
#X obj 80 130 osc~;
#X msg 250 50 1 80 0 \, 0.5 1500 2 \, 0 2000 1499;
#X connect 0 0 5 0;
#X connect 0 0 6 0;
#X connect 1 0 7 0;
#X connect 3 0 2 0;
#X connect 4 0 3 1;
#X connect 5 0 8 0;
#X connect 6 0 1 0;
#X connect 7 0 3 0;
#X connect 8 0 4 0;
